# xmcd
#
# Track frame offsets:
#	150
#	5252
#	16255
#	29337
#	46070
#	57747
#	69770
#	90087
#	111377
#	125867
#	149937
#	168322
#	183537
#	202607
#	214785
#	228630
#	245582
#	258215
#
# Disc length: 3695 seconds
#
# Revision: 1
# Processed by: cddbd v1.5.1PL0 Copyright (c) Steve Scherf et al.
# Submitted via: CDex 1.50Beta5
#
DISCID=fa0e6d12
DTITLE=PENPALS - THERE’S NO GREATEST HITS
DYEAR=2003
DGENRE=Rock
TTITLE0=A.F.O.K
TTITLE1=TONIGHT
TTITLE2=Tonight She’s Gone
TTITLE3=Rest
TTITLE4=JUMPIN’THE GUN
TTITLE5=I’m a sneaker
TTITLE6=KATIE
TTITLE7=DAYS GONE BY(OKINAWA RAGGA STYLE)
TTITLE8=OKINAWA GO ROUND
TTITLE9=Boys and Girls
TTITLE10=君を見てた
TTITLE11=OH YEAH
TTITLE12=RIDE PROUD
TTITLE13=LIFE ON THE HIGHWAY
TTITLE14=WASTELESS
TTITLE15=MOGUL
TTITLE16=INSIDE OUT
TTITLE17=ALL FUN OF KIDS
EXTD=
EXTT0=
EXTT1=
EXTT2=
EXTT3=
EXTT4=
EXTT5=
EXTT6=
EXTT7=
EXTT8=
EXTT9=
EXTT10=
EXTT11=
EXTT12=
EXTT13=
EXTT14=
EXTT15=
EXTT16=
EXTT17=
PLAYORDER=
